<?xml version="1.0" encoding="UTF-8"?>
<svg id="Layer_2" data-name="Layer 2" xmlns="http://www.w3.org/2000/svg" xmlns:xlink="http://www.w3.org/1999/xlink" viewBox="0 0 1903.93 506.41">
  <defs>
    <style>
      .cls-1 {
        fill: #fff;
      }

      .cls-2 {
        clip-path: url(#clippath-1);
      }

      .cls-3 {
        stroke-width: 5.56px;
      }

      .cls-3, .cls-4, .cls-5 {
        fill: #161a1e;
      }

      .cls-3, .cls-4, .cls-6 {
        stroke: #fff;
        stroke-miterlimit: 10;
      }

      .cls-4 {
        stroke-width: 5.56px;
      }

      .cls-7 {
        clip-path: url(#clippath);
      }

      .cls-8, .cls-6 {
        fill: none;
      }

      .cls-6 {
        stroke-width: 16.69px;
      }
    </style>
    <clipPath id="clippath">
      <circle class="cls-8" cx="266.2" cy="253.2" r="253.21"/>
    </clipPath>
    <clipPath id="clippath-1">
      <rect class="cls-8" x="7.43" y="248.3" width="541.71" height="127.74" transform="translate(-63.09 70.6) rotate(-13)"/>
    </clipPath>
  </defs>
  <g id="Layer_1-2" data-name="Layer 1">
    <g>
      <path class="cls-5" d="m1504.53,239.48v-58.1h46.42v10.33h-33.71v12.96h29.81v10.25h-29.81v14.15h34.22v10.42h-46.92Z"/>
      <path class="cls-5" d="m1584.99,240.5c-3.39,0-6.61-.34-9.66-1.02s-5.75-1.76-8.09-3.26c-2.34-1.5-4.18-3.39-5.51-5.68-1.33-2.29-1.99-5.07-1.99-8.34v-.89c0-.31.03-.55.08-.72h12.54c-.06.17-.08.4-.08.68v.76c0,1.81.49,3.33,1.48,4.57.99,1.24,2.44,2.17,4.36,2.8,1.92.62,4.15.93,6.69.93,1.64,0,3.09-.1,4.36-.3,1.27-.2,2.4-.48,3.39-.85.99-.37,1.81-.8,2.46-1.31.65-.51,1.13-1.1,1.44-1.78.31-.68.47-1.44.47-2.29,0-1.52-.5-2.77-1.48-3.73-.99-.96-2.34-1.78-4.07-2.46s-3.66-1.3-5.8-1.86c-2.15-.56-4.35-1.14-6.61-1.74-2.26-.59-4.46-1.33-6.61-2.2-2.15-.87-4.06-1.93-5.76-3.18-1.69-1.24-3.05-2.82-4.07-4.74-1.02-1.92-1.52-4.23-1.52-6.95,0-2.88.61-5.36,1.82-7.45,1.21-2.09,2.92-3.81,5.12-5.17,2.2-1.36,4.74-2.36,7.62-3.01,2.88-.65,6.01-.97,9.4-.97,3.16,0,6.15.33,8.98.97,2.82.65,5.31,1.68,7.45,3.09,2.14,1.41,3.82,3.19,5.04,5.34,1.21,2.15,1.82,4.69,1.82,7.62v1.02h-12.28v-.68c0-1.52-.45-2.82-1.36-3.9-.9-1.07-2.18-1.92-3.81-2.54-1.64-.62-3.56-.93-5.76-.93-2.37,0-4.39.23-6.05.68-1.67.45-2.94,1.12-3.81,1.99-.88.88-1.31,1.91-1.31,3.09,0,1.35.49,2.47,1.48,3.35.99.88,2.34,1.64,4.06,2.29,1.72.65,3.66,1.23,5.8,1.74,2.14.51,4.35,1.07,6.61,1.69,2.26.62,4.46,1.36,6.61,2.2,2.15.85,4.07,1.91,5.76,3.18,1.69,1.27,3.05,2.84,4.07,4.7,1.02,1.86,1.52,4.09,1.52,6.69,0,4.46-1.07,8.05-3.22,10.76s-5.08,4.69-8.81,5.93c-3.73,1.24-7.99,1.86-12.79,1.86Z"/>
      <path class="cls-5" d="m1634.2,239.48v-47.52h-18.63v-10.59h50.06v10.59h-18.72v47.52h-12.7Z"/>
      <path class="cls-5" d="m1670.37,239.48v-12.11h12.28v12.11h-12.28Z"/>
      <path class="cls-5" d="m1710.43,239.48v-3.05c0-2.54.45-4.86,1.36-6.95.9-2.09,2.15-4.01,3.73-5.76,1.58-1.75,3.33-3.42,5.25-5,1.92-1.58,3.9-3.1,5.93-4.57,2.31-1.75,4.5-3.47,6.56-5.17,2.06-1.69,3.74-3.51,5.04-5.46s1.95-4.11,1.95-6.48c0-1.13-.28-2.26-.85-3.39-.57-1.13-1.45-2.08-2.67-2.84-1.21-.76-2.84-1.14-4.87-1.14s-3.81.35-5.17,1.06c-1.36.71-2.39,1.69-3.09,2.96s-1.06,2.84-1.06,4.7v3.05h-11.35c-.06-.28-.11-.68-.17-1.19-.06-.51-.08-1.13-.08-1.86,0-4.12.94-7.51,2.84-10.16,1.89-2.65,4.46-4.63,7.71-5.93,3.25-1.3,6.93-1.95,11.05-1.95,3.73,0,6.85.52,9.36,1.57,2.51,1.05,4.53,2.43,6.06,4.15,1.52,1.72,2.61,3.59,3.26,5.59.65,2,.97,3.94.97,5.8,0,2.65-.48,5.08-1.44,7.28-.96,2.2-2.26,4.26-3.9,6.18-1.64,1.92-3.59,3.77-5.84,5.55-2.26,1.78-4.66,3.54-7.2,5.29-1.3.9-2.53,1.78-3.68,2.63-1.16.85-2.15,1.65-2.96,2.41-.82.76-1.45,1.51-1.91,2.24h27.36v10.42h-42.18Z"/>
      <path class="cls-5" d="m1781.83,240.5c-3.5,0-6.58-.52-9.23-1.57-2.65-1.04-4.87-2.74-6.65-5.08-1.78-2.34-3.11-5.43-3.98-9.27-.88-3.84-1.31-8.55-1.31-14.15s.44-10.38,1.31-14.19c.87-3.81,2.2-6.9,3.98-9.27s3.99-4.07,6.65-5.08c2.65-1.02,5.73-1.52,9.23-1.52s6.63.51,9.23,1.52c2.6,1.02,4.79,2.71,6.56,5.08s3.1,5.46,3.98,9.27c.88,3.81,1.31,8.54,1.31,14.19s-.44,10.31-1.31,14.15c-.88,3.84-2.2,6.93-3.98,9.27-1.78,2.34-3.97,4.04-6.56,5.08-2.6,1.04-5.67,1.57-9.23,1.57Zm0-9.15c2.48,0,4.38-.66,5.67-1.99,1.3-1.33,2.2-3.35,2.71-6.06s.76-6.1.76-10.16v-5.25c0-4.12-.25-7.55-.76-10.29-.51-2.74-1.41-4.79-2.71-6.14s-3.19-2.03-5.67-2.03-4.39.68-5.72,2.03c-1.33,1.35-2.25,3.38-2.75,6.06-.51,2.68-.76,6.08-.76,10.21v5.25c0,4.12.25,7.55.76,10.29.51,2.74,1.43,4.77,2.75,6.1,1.33,1.33,3.23,1.99,5.72,1.99Z"/>
      <path class="cls-5" d="m1811.31,239.48v-3.05c0-2.54.45-4.86,1.36-6.95.9-2.09,2.15-4.01,3.73-5.76,1.58-1.75,3.33-3.42,5.25-5,1.92-1.58,3.9-3.1,5.93-4.57,2.31-1.75,4.5-3.47,6.56-5.17,2.06-1.69,3.74-3.51,5.04-5.46s1.95-4.11,1.95-6.48c0-1.13-.28-2.26-.85-3.39-.57-1.13-1.45-2.08-2.67-2.84-1.21-.76-2.84-1.14-4.87-1.14s-3.81.35-5.17,1.06c-1.36.71-2.39,1.69-3.09,2.96s-1.06,2.84-1.06,4.7v3.05h-11.35c-.06-.28-.11-.68-.17-1.19-.06-.51-.08-1.13-.08-1.86,0-4.12.94-7.51,2.84-10.16,1.89-2.65,4.46-4.63,7.71-5.93,3.25-1.3,6.93-1.95,11.05-1.95,3.73,0,6.85.52,9.36,1.57,2.51,1.05,4.53,2.43,6.06,4.15,1.52,1.72,2.61,3.59,3.26,5.59.65,2,.97,3.94.97,5.8,0,2.65-.48,5.08-1.44,7.28-.96,2.2-2.26,4.26-3.9,6.18-1.64,1.92-3.59,3.77-5.84,5.55-2.26,1.78-4.66,3.54-7.2,5.29-1.3.9-2.53,1.78-3.68,2.63-1.16.85-2.15,1.65-2.96,2.41-.82.76-1.45,1.51-1.91,2.24h27.36v10.42h-42.18Z"/>
      <path class="cls-5" d="m1882.71,240.5c-3.5,0-6.58-.52-9.23-1.57-2.65-1.04-4.87-2.74-6.65-5.08-1.78-2.34-3.11-5.43-3.98-9.27-.88-3.84-1.31-8.55-1.31-14.15s.44-10.38,1.31-14.19c.87-3.81,2.2-6.9,3.98-9.27s3.99-4.07,6.65-5.08c2.65-1.02,5.73-1.52,9.23-1.52s6.63.51,9.23,1.52c2.6,1.02,4.79,2.71,6.56,5.08s3.1,5.46,3.98,9.27c.88,3.81,1.31,8.54,1.31,14.19s-.44,10.31-1.31,14.15c-.88,3.84-2.2,6.93-3.98,9.27-1.78,2.34-3.97,4.04-6.56,5.08-2.6,1.04-5.67,1.57-9.23,1.57Zm0-9.15c2.48,0,4.38-.66,5.67-1.99,1.3-1.33,2.2-3.35,2.71-6.06s.76-6.1.76-10.16v-5.25c0-4.12-.25-7.55-.76-10.29-.51-2.74-1.41-4.79-2.71-6.14s-3.19-2.03-5.67-2.03-4.39.68-5.72,2.03c-1.33,1.35-2.25,3.38-2.75,6.06-.51,2.68-.76,6.08-.76,10.21v5.25c0,4.12.25,7.55.76,10.29.51,2.74,1.43,4.77,2.75,6.1,1.33,1.33,3.23,1.99,5.72,1.99Z"/>
    </g>
    <g class="cls-7">
      <circle class="cls-5" cx="266.2" cy="253.2" r="253.21"/>
      <circle class="cls-3" cx="266.2" cy="253.2" r="194.76"/>
      <circle class="cls-4" cx="266.2" cy="253.2" r="139.11"/>
      <ellipse class="cls-6" cx="265.28" cy="249.9" rx="245.21" ry="38.95" transform="translate(-49.42 66.08) rotate(-13)"/>
      <circle class="cls-1" cx="266.2" cy="253.2" r="83.47"/>
      <g class="cls-2">
        <g>
          <path class="cls-5" d="m457.29,182.94c27.87,0,45.07,3.83,46.91,11.8,4.84,20.96-98.21,62.65-230.16,93.11-81.75,18.87-155.4,29.01-200.77,29.01-27.87,0-45.07-3.83-46.91-11.8-4.84-20.96,98.21-62.65,230.16-93.11,81.75-18.87,155.4-29.01,200.77-29.01m0-22.26c-48.63,0-125.55,11.06-205.78,29.58-64.92,14.99-125.2,33.16-169.72,51.17-22.52,9.11-40.15,17.85-52.38,25.98-7.54,5.01-13.17,9.85-17.22,14.82-8.98,11.02-9.05,21.22-7.52,27.84,2.03,8.78,8.9,20.34,30.11,25.51,9.78,2.38,22.37,3.54,38.49,3.54,48.63,0,125.55-11.06,205.78-29.58,64.92-14.99,125.2-33.16,169.72-51.17,22.52-9.11,40.15-17.85,52.38-25.98,7.54-5.01,13.17-9.85,17.22-14.82,8.98-11.02,9.05-21.22,7.52-27.84-2.03-8.78-8.9-20.34-30.11-25.51-9.78-2.38-22.37-3.54-38.49-3.54h0Z"/>
          <ellipse class="cls-6" cx="265.28" cy="249.9" rx="245.21" ry="38.95" transform="translate(-49.42 66.08) rotate(-13)"/>
        </g>
      </g>
    </g>
    <g>
      <path class="cls-5" d="m575.01,239.5V56h39.86v183.5h-39.86Z"/>
      <path class="cls-5" d="m655.53,239.5V56h39.86v83.46l78.11-83.46h49.22l-70.08,74.63,71.42,108.87h-47.62l-51.36-81.32-29.69,26.75v54.57h-39.86Z"/>
      <path class="cls-5" d="m824.32,239.5l70.62-183.5h49.22l70.62,183.5h-43.07l-13.11-36.11h-79.98l-13.11,36.11h-41.19Zm65.8-68.21h56.98l-16.32-45.21c-.71-1.96-1.56-4.32-2.54-7.09-.98-2.76-2.01-5.84-3.08-9.23-1.07-3.39-2.1-6.73-3.08-10.03-.98-3.3-1.92-6.29-2.81-8.96h-1.6c-.89,3.39-2.05,7.36-3.48,11.9-1.43,4.55-2.86,8.92-4.28,13.11-1.43,4.19-2.59,7.62-3.48,10.3l-16.32,45.21Z"/>
      <path class="cls-5" d="m1036.72,239.5V56h39.86v183.5h-39.86Z"/>
      <path class="cls-5" d="m1117.23,239.5V56h39.86v83.46l78.11-83.46h49.22l-70.08,74.63,71.42,108.87h-47.62l-51.36-81.32-29.69,26.75v54.57h-39.86Z"/>
      <path class="cls-5" d="m1286.03,239.5l70.62-183.5h49.22l70.62,183.5h-43.07l-13.11-36.11h-79.98l-13.11,36.11h-41.19Zm65.8-68.21h56.98l-16.32-45.21c-.71-1.96-1.56-4.32-2.54-7.09-.98-2.76-2.01-5.84-3.08-9.23-1.07-3.39-2.1-6.73-3.08-10.03-.98-3.3-1.92-6.29-2.81-8.96h-1.6c-.89,3.39-2.05,7.36-3.48,11.9-1.43,4.55-2.86,8.92-4.28,13.11-1.43,4.19-2.59,7.62-3.48,10.3l-16.32,45.21Z"/>
    </g>
    <g>
      <path class="cls-5" d="m575,451v-183.5h100.58c13.55,0,24.83,2.41,33.84,7.22,9,4.82,15.74,11.55,20.2,20.2,4.46,8.65,6.69,18.59,6.69,29.83,0,11.95-2.68,22.52-8.03,31.7-5.35,9.19-13.11,16.18-23.27,21l37.45,73.56h-44.14l-32.37-66.88h-51.09v66.88h-39.86Zm39.86-98.44h55.37c8.03,0,14.27-2.45,18.73-7.36,4.46-4.9,6.69-11.54,6.69-19.93,0-5.35-.98-9.94-2.94-13.78-1.96-3.83-4.82-6.73-8.56-8.69-3.75-1.96-8.38-2.94-13.91-2.94h-55.37v52.7Z"/>
      <path class="cls-5" d="m770.27,451v-183.5h146.59v32.63h-106.46v40.93h94.16v32.37h-94.16v44.67h108.07v32.9h-148.2Z"/>
      <path class="cls-5" d="m1035.09,454.21c-19.08,0-35.4-3.34-48.95-10.03-13.55-6.69-23.85-17.07-30.9-31.16-7.05-14.08-10.57-32.01-10.57-53.77,0-32.1,7.89-55.95,23.67-71.56,15.78-15.6,38.03-23.41,66.74-23.41,15.69,0,29.78,2.67,42.27,8.02,12.48,5.35,22.34,13.38,29.56,24.07,7.22,10.7,10.83,24.17,10.83,40.39h-40.12c0-8.56-1.74-15.78-5.22-21.67-3.48-5.88-8.38-10.39-14.71-13.51-6.33-3.12-13.69-4.68-22.07-4.68-11.41,0-20.82,2.23-28.22,6.69-7.4,4.46-12.84,11.01-16.32,19.66-3.48,8.65-5.22,19.22-5.22,31.7v8.29c0,12.84,1.78,23.59,5.35,32.23,3.57,8.65,8.96,15.16,16.18,19.53,7.22,4.37,16.54,6.55,27.95,6.55,8.92,0,16.67-1.51,23.27-4.55,6.6-3.03,11.68-7.49,15.25-13.38,3.57-5.88,5.35-13.11,5.35-21.67h38.52c0,16.23-3.52,29.69-10.57,40.39-7.05,10.7-16.81,18.68-29.29,23.94-12.49,5.26-26.75,7.89-42.8,7.89Z"/>
      <path class="cls-5" d="m1234.65,454.21c-19.44,0-36.2-3.48-50.29-10.43-14.09-6.96-24.88-17.48-32.37-31.57-7.49-14.08-11.24-31.74-11.24-52.96s3.75-39.36,11.24-53.37c7.49-14,18.28-24.43,32.37-31.3,14.09-6.86,30.85-10.3,50.29-10.3s36.69,3.44,50.69,10.3c14,6.87,24.74,17.3,32.23,31.3,7.49,14,11.23,31.79,11.23,53.37s-3.75,38.88-11.23,52.96c-7.49,14.09-18.24,24.61-32.23,31.57-14,6.96-30.9,10.43-50.69,10.43Zm0-32.63c8.74,0,16.41-1.25,23-3.75,6.6-2.5,12.13-6.24,16.58-11.24,4.46-4.99,7.85-11.1,10.17-18.32,2.32-7.22,3.48-15.47,3.48-24.74v-8.29c0-9.45-1.16-17.83-3.48-25.14-2.32-7.31-5.71-13.42-10.17-18.32-4.46-4.9-9.99-8.6-16.58-11.1-6.6-2.5-14.27-3.75-23-3.75s-16.14,1.25-22.74,3.75c-6.6,2.5-12.13,6.2-16.58,11.1-4.46,4.91-7.8,11.01-10.03,18.32-2.23,7.31-3.34,15.69-3.34,25.14v8.29c0,9.27,1.11,17.52,3.34,24.74,2.23,7.22,5.57,13.33,10.03,18.32,4.46,5,9.99,8.74,16.58,11.24,6.6,2.5,14.18,3.75,22.74,3.75Z"/>
      <path class="cls-5" d="m1361.17,451v-183.5h100.58c13.55,0,24.83,2.41,33.84,7.22,9,4.82,15.74,11.55,20.2,20.2,4.46,8.65,6.69,18.59,6.69,29.83,0,11.95-2.68,22.52-8.03,31.7-5.35,9.19-13.11,16.18-23.27,21l37.45,73.56h-44.14l-32.37-66.88h-51.09v66.88h-39.86Zm39.86-98.44h55.37c8.03,0,14.27-2.45,18.72-7.36,4.46-4.9,6.69-11.54,6.69-19.93,0-5.35-.98-9.94-2.94-13.78-1.96-3.83-4.82-6.73-8.56-8.69-3.75-1.96-8.38-2.94-13.91-2.94h-55.37v52.7Z"/>
      <path class="cls-5" d="m1556.45,451v-183.5h74.9c19.08,0,35.31,3.3,48.69,9.9,13.38,6.6,23.67,16.63,30.9,30.09,7.22,13.47,10.83,30.72,10.83,51.76s-3.61,38.08-10.83,51.63c-7.22,13.55-17.52,23.63-30.9,30.23-13.38,6.6-29.61,9.9-48.69,9.9h-74.9Zm39.86-32.9h34.78c8.03,0,15.16-1.16,21.4-3.48,6.24-2.32,11.41-5.75,15.52-10.3,4.1-4.55,7.22-10.25,9.36-17.12,2.14-6.86,3.21-14.85,3.21-23.94v-8.03c0-9.09-1.07-17.07-3.21-23.94-2.14-6.86-5.26-12.57-9.36-17.12-4.11-4.55-9.28-8.02-15.52-10.43-6.24-2.41-13.38-3.61-21.4-3.61h-34.78v117.97Z"/>
      <path class="cls-5" d="m1825.55,454.21c-10.7,0-20.87-1.07-30.5-3.21-9.63-2.14-18.15-5.57-25.55-10.3-7.4-4.72-13.2-10.7-17.39-17.92-4.19-7.22-6.29-16-6.29-26.35v-2.81c0-.98.09-1.74.27-2.27h39.59c-.18.53-.27,1.25-.27,2.14v2.41c0,5.71,1.56,10.52,4.68,14.45,3.12,3.92,7.71,6.87,13.78,8.83,6.06,1.96,13.11,2.94,21.13,2.94,5.17,0,9.76-.31,13.78-.94,4.01-.62,7.58-1.51,10.7-2.68,3.12-1.16,5.71-2.54,7.76-4.15,2.05-1.61,3.57-3.48,4.55-5.62.98-2.14,1.47-4.55,1.47-7.22,0-4.82-1.56-8.74-4.68-11.77-3.12-3.03-7.4-5.62-12.84-7.76-5.44-2.14-11.55-4.1-18.32-5.88-6.78-1.78-13.73-3.61-20.87-5.48-7.13-1.87-14.09-4.19-20.87-6.96-6.78-2.76-12.84-6.11-18.19-10.03-5.35-3.92-9.63-8.92-12.84-14.98-3.21-6.06-4.81-13.37-4.81-21.93,0-9.09,1.91-16.94,5.75-23.54,3.83-6.6,9.23-12.04,16.19-16.32,6.96-4.28,14.98-7.44,24.07-9.5,9.1-2.05,18.99-3.08,29.69-3.08,9.98,0,19.44,1.03,28.35,3.08,8.92,2.05,16.76,5.31,23.54,9.76,6.78,4.46,12.08,10.08,15.92,16.85,3.83,6.78,5.75,14.8,5.75,24.08v3.21h-38.79v-2.14c0-4.81-1.43-8.92-4.28-12.31-2.86-3.39-6.87-6.06-12.04-8.02-5.18-1.96-11.24-2.94-18.19-2.94-7.49,0-13.87.71-19.12,2.14-5.26,1.43-9.28,3.52-12.04,6.29-2.77,2.77-4.15,6.02-4.15,9.76,0,4.28,1.56,7.8,4.68,10.57,3.12,2.77,7.4,5.17,12.84,7.22,5.44,2.05,11.54,3.88,18.32,5.48,6.78,1.6,13.73,3.39,20.87,5.35,7.13,1.96,14.09,4.28,20.87,6.96,6.78,2.67,12.84,6.02,18.19,10.03,5.35,4.01,9.63,8.96,12.84,14.85,3.21,5.88,4.81,12.93,4.81,21.13,0,14.09-3.39,25.41-10.17,33.97-6.78,8.56-16.05,14.8-27.82,18.73-11.77,3.92-25.24,5.88-40.39,5.88Z"/>
    </g>
  </g>
</svg>